<?xml version="1.0" encoding="UTF-8" standalone="no"?>
<!DOCTYPE svg PUBLIC "-//W3C//DTD SVG 1.1//EN"
 "http://www.w3.org/Graphics/SVG/1.1/DTD/svg11.dtd">
<!-- Generated by graphviz version 9.0.0 (20230911.1827)
 -->
<!-- Title: G Pages: 1 -->
<svg width="148pt" height="225pt"
 viewBox="0.00 0.00 147.72 225.00" xmlns="http://www.w3.org/2000/svg" xmlns:xlink="http://www.w3.org/1999/xlink">
<g id="graph0" class="graph" transform="scale(1 1) rotate(0) translate(4 221)">
<title>G</title><style>.edge>path:hover{stroke-width:8}</style>
<polygon fill="white" stroke="none" points="-4,4 -4,-221 143.72,-221 143.72,4 -4,4"/>
<!-- __init___py -->
<g id="node1" class="node">
<title>__init___py</title><style>.edge>path:hover{stroke-width:8}</style>
<ellipse fill="#9f5656" stroke="black" cx="38.03" cy="-18" rx="38.03" ry="18"/>
<text text-anchor="middle" x="38.03" y="-14.5" font-family="Helvetica,sans-Serif" font-size="10.00" fill="#ffffff">__init__.py</text>
</g>
<!-- pymscada -->
<g id="node2" class="node">
<title>pymscada</title><style>.edge>path:hover{stroke-width:8}</style>
<ellipse fill="#3db8b8" stroke="black" cx="103.03" cy="-127" rx="36.68" ry="18"/>
<text text-anchor="middle" x="103.03" y="-123.5" font-family="Helvetica,sans-Serif" font-size="10.00" fill="#000000">pymscada</text>
</g>
<!-- pymscada&#45;&gt;__init___py -->
<g id="edge1" class="edge">
<title>pymscada&#45;&gt;__init___py</title><style>.edge>path:hover{stroke-width:8}</style>
<path fill="none" stroke="black" d="M76.35,-114.18C60.78,-105.45 43.22,-91.81 38.03,-73"/>
</g>
<!-- pymscada_tag -->
<g id="node3" class="node">
<title>pymscada_tag</title><style>.edge>path:hover{stroke-width:8}</style>
<ellipse fill="#47c2c2" stroke="black" cx="70.03" cy="-199" rx="46.6" ry="18"/>
<text text-anchor="middle" x="70.03" y="-195.5" font-family="Helvetica,sans-Serif" font-size="10.00" fill="#000000">pymscada.tag</text>
</g>
<!-- pymscada_tag&#45;&gt;__init___py -->
<g id="edge2" class="edge">
<title>pymscada_tag&#45;&gt;__init___py</title><style>.edge>path:hover{stroke-width:8}</style>
<path fill="none" stroke="black" d="M38.03,-72C35.87,-64.13 35.2,-55.36 35.26,-47.24"/>
<polygon fill="#47c2c2" stroke="black" points="38.74,-47.68 35.7,-37.53 31.75,-47.36 38.74,-47.68"/>
<path fill="none" stroke="black" d="M65.88,-180.96C59.96,-156.86 48.63,-111.44 38.03,-73"/>
</g>
<!-- pymscada_tag&#45;&gt;pymscada -->
<g id="edge3" class="edge">
<title>pymscada_tag&#45;&gt;pymscada</title><style>.edge>path:hover{stroke-width:8}</style>
<path fill="none" stroke="black" d="M78.02,-181.05C81.71,-173.23 86.18,-163.75 90.32,-154.98"/>
<polygon fill="#47c2c2" stroke="black" points="93.38,-156.7 94.47,-146.16 87.04,-153.71 93.38,-156.7"/>
</g>
</g>
</svg>
